<?xml version="1.0" encoding="UTF-8"?><svg id="Layer_1" xmlns="http://www.w3.org/2000/svg" viewBox="0 0 927.83 717.63"><defs><style>.cls-1{fill:#00b8ab;}.cls-2{fill:#333;}.cls-3{fill:#99f200;}</style></defs><g><path class="cls-2" d="M149.4,647.61c25.58,10.04,56.07,12.91,62.34,13.41-.03-11.9-.03-23.81-.02-35.71-7.21-.59-35.8-3.53-62.12-14.06-.04,12.12-.11,24.24-.2,36.36Z"/><path class="cls-2" d="M149.26,581.68c0,6.08,.37,12.17,.37,18.25,0,1.36,0,2.73,0,4.09,25.51,9.96,55.81,12.82,62.1,13.32,0-2.42,0-4.84,0-7.25,0-9.48,.03-18.97,.02-28.45-7.2-.59-36.03-3.54-62.46-14.19,0,4.75-.02,9.49-.02,14.24Z"/><path class="cls-2" d="M148.86,672.33c-.86,9.67-2.82,19.24-3.66,28.91-.27,3.08,.77,6.89,2.58,9.37,1.95,2.68,2.76,7.07,7.7,7.02,16.63-.14,33.26-.04,49.89-.08,1.21,0,3.14,0,3.53-.67,2.48-4.35,6.41-8.85,6.51-13.38,.23-9.64-1.55-19.32-2.58-28.98-.2-1.85-.83-3.68-1.02-5.52-7.07-.57-35.95-3.51-62.44-14.16,0,5.85,0,11.7-.51,17.5Z"/><path class="cls-2" d="M149.29,560.22c25.58,10.06,56.11,12.94,62.43,13.45-.01-2.6-.02-5.2-.05-7.8-.06-6.99-.78-13.98-.81-20.97,0-2.33,.01-4.67,.05-7-8.37-.73-36.07-3.84-61.56-14.09-.03,12.14-.05,24.28-.06,36.42Z"/><path class="cls-2" d="M360.78,211.81h-.29c0-31.25,.05-62.5-.04-93.75-.02-5.72-.19-11.5-1-17.15C351.01,41.9,302.79,.06,243.3,.03c-42.5-.02-85-.11-127.49,.13-7.88,.04-15.9,.81-23.6,2.46C38.13,14.23,.42,60.93,.26,116.43c-.19,66.38-.41,132.77-.12,199.15,.15,34.64,14.58,62.47,43.02,82.51,26.86,18.93,53.74,37.84,81.07,56.06,9.07,6.05,14.58,14.07,18.75,22.94h74.59c.34-.78,.69-1.56,1.06-2.32,3.71-7.75,10.66-14.77,17.75-19.94,25.21-18.36,50.87-36.14,76.79-53.49,32.48-21.74,47.93-51.95,47.67-90.79-.22-32.91-.05-65.83-.05-98.74Z"/><path class="cls-2" d="M149.28,493.16c.35,1,.14,2.2,.14,3.31-.01,6.7-.03,13.41-.04,20.11,24.76,9.72,54.12,12.72,61.69,13.36,.13-6.44,.26-12.87,.08-19.3-.17-6.18,.37-12.28,1.57-18.19l-63.75-.18c.1,.3,.21,.59,.31,.89Z"/><path class="cls-3" d="M148.96,492.27l63.75,.18c1.08-5.31,2.7-10.45,4.84-15.36h-74.59c2.28,4.87,4.16,9.99,5.99,15.18Z"/><path class="cls-3" d="M149.39,649.23c-.01,1.87-.01,3.74-.01,5.6,26.5,10.65,55.37,13.58,62.44,14.16-.03-.31-.05-.63-.06-.94,0-2.34-.01-4.69-.02-7.03-6.27-.5-36.76-3.37-62.34-13.41,0,.54,0,1.08-.01,1.62Z"/><path class="cls-3" d="M149.6,611.25c26.32,10.53,54.9,13.47,62.12,14.06,0-2.66,0-5.31,0-7.97-6.29-.5-36.59-3.36-62.1-13.32,0,2.41,0,4.82-.02,7.23Z"/><path class="cls-3" d="M149.28,567.45c26.44,10.65,55.27,13.6,62.46,14.19,0-2.66-.01-5.31-.02-7.97-6.32-.5-36.85-3.39-62.43-13.45,0,2.41,0,4.82-.01,7.23Z"/><path class="cls-3" d="M149.36,523.8c25.49,10.25,53.18,13.36,61.56,14.09,.04-2.65,.09-5.3,.15-7.95-7.57-.64-36.93-3.64-61.69-13.36,0,2.41-.01,4.82-.02,7.22Z"/><path class="cls-2" d="M360.78,211.81h-.29c0-31.25,.05-62.5-.04-93.75-.02-5.72-.19-11.5-1-17.15C351.01,41.9,302.79,.06,243.3,.03c-42.5-.02-85-.11-127.49,.13-7.88,.04-15.9,.81-23.6,2.46C38.13,14.23,.42,60.93,.26,116.43c-.19,66.38-.41,132.77-.12,199.15,.15,34.64,14.58,62.47,43.02,82.51,26.86,18.93,53.74,37.84,81.07,56.06,9.07,6.05,14.58,14.07,18.75,22.94h74.59c.34-.78,.69-1.56,1.06-2.32,3.71-7.75,10.66-14.77,17.75-19.94,25.21-18.36,50.87-36.14,76.79-53.49,32.48-21.74,47.93-51.95,47.67-90.79-.22-32.91-.05-65.83-.05-98.74Z"/><path class="cls-3" d="M148.25,464.91c-4.98-9.23-11.03-16.05-18.82-21.24-27.59-18.4-55.05-37.75-79.27-54.82-25.76-18.16-38.89-43.35-39.03-74.87-.27-61.61-.09-124.27,.09-184.87l.03-10.19c.07-24.99,8.23-48.26,23.6-67.28,15.37-19.02,36.35-31.83,60.68-37.05,6.75-1.45,14.02-2.2,21.62-2.25,19.53-.11,40.3-.16,67.36-.16,11.97,0,23.93,0,35.9,.02,7.2,0,14.41,.01,21.61,.01,26.42,.01,51.58,9.23,70.84,25.95,19.26,16.73,31.94,40.37,35.68,66.58,.77,5.41,.89,11.02,.91,15.78,.07,22.75,.06,45.89,.05,68.27,0,7.85,0,15.71,0,23.56v7.35h.28c0,7.43-.02,14.86-.03,22.29-.04,22.01-.07,44.76,.08,67.15,.24,35.98-13.97,63.07-43.44,82.79-27.34,18.3-52.03,35.5-75.47,52.58-4.86,3.54-13.48,10.73-18.73,20.4h-63.93Z"/></g><g><path class="cls-2" d="M927.78,211.81h-.29c0-31.25,.05-62.5-.04-93.75-.02-5.72-.19-11.5-1-17.15C918.01,41.9,869.79,.06,810.3,.03c-42.5-.02-85-.11-127.49,.13-7.88,.04-15.9,.81-23.6,2.46-54.08,11.6-91.79,58.3-91.95,113.8-.19,66.38-.41,132.77-.12,199.15,.15,34.64,14.58,62.47,43.02,82.51,26.86,18.93,53.74,37.84,81.07,56.06,9.07,6.05,14.58,14.07,18.75,22.94h74.59c.34-.78,.69-1.56,1.06-2.32,3.71-7.75,10.66-14.77,17.75-19.94,25.21-18.36,50.87-36.14,76.79-53.49,32.48-21.74,47.93-51.95,47.67-90.79-.22-32.91-.05-65.83-.05-98.74Z"/><path class="cls-1" d="M715.96,492.27l63.75,.18c1.08-5.31,2.7-10.45,4.84-15.36h-74.59c2.28,4.87,4.16,9.99,5.99,15.18Z"/><path class="cls-1" d="M716.39,649.23c-.01,1.87-.01,3.74-.01,5.6,26.5,10.65,55.37,13.58,62.44,14.16-.03-.31-.05-.63-.06-.94,0-2.34-.01-4.69-.02-7.03-6.27-.5-36.76-3.37-62.34-13.41,0,.54,0,1.08-.01,1.62Z"/><path class="cls-1" d="M716.6,611.25c26.32,10.53,54.9,13.47,62.12,14.06,0-2.66,0-5.31,0-7.97-6.29-.5-36.59-3.36-62.1-13.32,0,2.41,0,4.82-.02,7.23Z"/><path class="cls-1" d="M716.28,567.45c26.44,10.65,55.27,13.6,62.46,14.19,0-2.66-.01-5.31-.02-7.97-6.32-.5-36.85-3.39-62.43-13.45,0,2.41,0,4.82-.01,7.23Z"/><path class="cls-1" d="M716.36,523.8c25.49,10.25,53.18,13.36,61.56,14.09,.04-2.65,.09-5.3,.15-7.95-7.57-.64-36.93-3.64-61.69-13.36,0,2.41-.01,4.82-.02,7.22Z"/><path class="cls-2" d="M927.78,211.81h-.29c0-31.25,.05-62.5-.04-93.75-.02-5.72-.19-11.5-1-17.15C918.01,41.9,869.79,.06,810.3,.03c-42.5-.02-85-.11-127.49,.13-7.88,.04-15.9,.81-23.6,2.46-54.08,11.6-91.79,58.3-91.95,113.8-.19,66.38-.41,132.77-.12,199.15,.15,34.64,14.58,62.47,43.02,82.51,26.86,18.93,53.74,37.84,81.07,56.06,9.07,6.05,14.58,14.07,18.75,22.94h74.59c.34-.78,.69-1.56,1.06-2.32,3.71-7.75,10.66-14.77,17.75-19.94,25.21-18.36,50.87-36.14,76.79-53.49,32.48-21.74,47.93-51.95,47.67-90.79-.22-32.91-.05-65.83-.05-98.74Z"/><g><path class="cls-2" d="M716.4,647.61c25.58,10.04,56.07,12.91,62.34,13.41-.03-11.9-.03-23.81-.02-35.71-7.21-.59-35.8-3.53-62.12-14.06-.04,12.12-.11,24.24-.2,36.36Z"/><path class="cls-2" d="M716.26,581.68c0,6.08,.37,12.17,.37,18.25,0,1.36,0,2.73,0,4.09,25.51,9.96,55.81,12.82,62.1,13.32,0-2.42,0-4.84,0-7.25,0-9.48,.03-18.97,.02-28.45-7.2-.59-36.03-3.54-62.46-14.19,0,4.75-.02,9.49-.02,14.24Z"/><path class="cls-2" d="M715.86,672.33c-.86,9.67-2.82,19.24-3.66,28.91-.27,3.08,.77,6.89,2.58,9.37,1.95,2.68,2.76,7.07,7.7,7.02,16.63-.14,33.26-.04,49.89-.08,1.21,0,3.14,0,3.53-.67,2.48-4.35,6.41-8.85,6.51-13.38,.23-9.64-1.55-19.32-2.58-28.98-.2-1.85-.83-3.68-1.02-5.52-7.07-.57-35.95-3.51-62.44-14.16,0,5.85,0,11.7-.51,17.5Z"/><path class="cls-2" d="M716.29,560.22c25.58,10.06,56.11,12.94,62.43,13.45-.01-2.6-.02-5.2-.05-7.8-.06-6.99-.78-13.98-.81-20.97,0-2.33,.01-4.67,.05-7-8.37-.73-36.07-3.84-61.56-14.09-.03,12.14-.05,24.28-.06,36.42Z"/><path class="cls-2" d="M716.28,493.16c.35,1,.14,2.2,.14,3.31-.01,6.7-.03,13.41-.04,20.11,24.76,9.72,54.12,12.72,61.69,13.36,.13-6.44,.26-12.87,.08-19.3-.17-6.18,.37-12.28,1.57-18.19l-63.75-.18c.1,.3,.21,.59,.31,.89Z"/></g><path class="cls-1" d="M715.25,464.91c-4.98-9.23-11.03-16.05-18.82-21.24-27.59-18.4-55.05-37.75-79.27-54.82-25.76-18.16-38.89-43.35-39.03-74.87-.27-61.61-.09-124.27,.09-184.87l.03-10.19c.07-24.99,8.23-48.26,23.6-67.28,15.37-19.02,36.35-31.83,60.68-37.05,6.75-1.45,14.02-2.2,21.62-2.25,19.53-.11,40.3-.16,67.36-.16,11.97,0,23.93,0,35.9,.02,7.2,0,14.41,.01,21.61,.01,26.42,.01,51.58,9.23,70.84,25.95,19.26,16.73,31.94,40.37,35.68,66.58,.77,5.41,.89,11.02,.91,15.78,.07,22.75,.06,45.89,.05,68.27,0,7.85,0,15.71,0,23.56v7.35h.28c0,7.43-.02,14.86-.03,22.29-.04,22.01-.07,44.76,.08,67.15,.24,35.98-13.97,63.07-43.44,82.79-27.34,18.3-52.03,35.5-75.47,52.58-4.86,3.54-13.48,10.73-18.73,20.4h-63.93Z"/></g></svg>